<?xml version="1.0" standalone="no"?><!DOCTYPE svg PUBLIC "-//W3C//DTD SVG 1.1//EN" "http://www.w3.org/Graphics/SVG/1.1/DTD/svg11.dtd"><svg class="icon" width="200px" height="200.00px" viewBox="0 0 1024 1024" version="1.1" xmlns="http://www.w3.org/2000/svg"><path d="M500.739027 369.888352c22.899546 0 38.197974-15.33629 38.197974-38.173415 0-23.097044-15.273868-38.037315-38.197974-38.037314-22.936385 0-45.935192 14.94027-45.935192 38.037314 0.024559 22.849404 23.035646 38.173414 45.935192 38.173415z m-213.670428-76.211753c-22.899546 0-46.045709 14.94027-46.045709 38.037315 0 22.837124 23.147186 38.173414 46.045709 38.173414 22.812565 0 38.087457-15.33629 38.087457-38.173414-0.01228-23.097044-15.261589-38.037315-38.087457-38.037315z m670.332075 320.602856c0-120.760364-112.02133-223.657896-249.5281-234.364749 0.186242-1.49812 0.273223-3.057639-0.061398-4.616134-27.565822-128.545678-165.803233-225.465055-321.568856-225.465055-176.014806 0-319.228555 122.740462-319.228555 273.603425 0 80.939427 41.317011 153.871483 119.621424 211.379245l-27.293623 82.053807a13.978363 13.978363 0 0 0 4.085039 14.915711 13.992689 13.992689 0 0 0 9.135054 3.391237c2.117221 0 4.257977-0.49528 6.225795-1.473561l102.477976-51.280943 12.625552 2.563382c31.5516 6.485715 58.795081 12.105712 92.352361 12.105712 9.876951 0 37.060057-3.614317 39.350217-6.511297C462.542076 783.043113 564.387649 849.787236 684.219875 849.787236c30.697139 0 61.765739-7.401574 89.653903-14.383592l78.997191 43.186592c2.091638 1.139963 4.394077 1.732457 6.671957 1.732457 3.120061 0 6.238075-1.052982 8.739035-3.094478 4.394077-3.565199 6.202259-9.431813 4.567015-14.804171l-20.176528-67.088977c67.63133-53.449329 104.728226-117.39471 104.728226-181.055612z m-544.731472 45.563731a306.740126 306.740126 0 0 1-26.365484 1.12666c-29.632901 0-54.698786-5.123694-83.688027-11.115151l-16.84669-3.40454a12.93459 12.93459 0 0 0-8.615215 1.150196l-74.05667 37.072337 19.247366-57.817824a13.433964 13.433964 0 0 0-5.050016-15.249309c-74.40357-51.863205-112.108311-115.041106-112.10831-187.749058 0-130.712017 126.09486-237.08879 281.104259-237.08879 137.02377 0 258.341836 83.365686 283.382139 194.247053-143.67219 1.88186-259.925914 102.886275-259.925914 226.938616 0 18.034748 2.736321 35.511795 7.352455 52.370764-1.396813-0.344854-2.871397-0.618077-4.429893-0.480954z m408.485415 111.464651c-4.419659 3.329838-6.287193 9.072633-4.703115 14.371313l12.515035 41.615816-51.355645-28.097942a13.221116 13.221116 0 0 0-6.349615-1.63422c-1.076518 0-2.166339 0.1361-3.231601 0.420579-27.541263 6.957459-56.047504 14.136975-83.799568 14.136975-128.904859 0-233.771231-88.589664-233.771231-197.46535 0-108.877733 104.855116-197.429535 233.771231-197.429535 126.44176 0 233.289254 90.409103 233.289254 197.429535 0 54.278207-34.213219 109.928668-96.362698 156.656923l-0.002047-0.004094z m-221.133399-256.287037c-15.273868 0-30.54876 15.385409-30.54876 30.635741 0 15.360849 15.273868 30.524201 30.54876 30.5242 22.948665 0 38.110993-15.162328 38.110992-30.5242 0.001023-15.274892-15.162328-30.635741-38.110992-30.635741z m167.834496 0c-15.051811 0-30.326702 15.385409-30.326703 30.635741 0 15.360849 15.273868 30.524201 30.326703 30.5242 22.873963 0 38.309514-15.162328 38.309514-30.5242 0-15.274892-15.409968-30.635741-38.309514-30.635741z"  /></svg>